<svg xmlns="http://www.w3.org/2000/svg" viewBox="0 0 800 800" width="800" height="800">
  <!-- Background circle -->
  <circle cx="400" cy="400" r="380" fill="none" stroke="#8246AF" stroke-width="1" opacity="0.2" />
  
  <!-- Center circle -->
  <circle cx="400" cy="400" r="100" fill="none" stroke="#8246AF" stroke-width="2" opacity="0.7" />
  
  <!-- First ring of 6 circles -->
  <circle cx="500" cy="400" r="100" fill="none" stroke="#8246AF" stroke-width="2" opacity="0.7" />
  <circle cx="450" cy="486.6" r="100" fill="none" stroke="#8246AF" stroke-width="2" opacity="0.7" />
  <circle cx="350" cy="486.6" r="100" fill="none" stroke="#8246AF" stroke-width="2" opacity="0.7" />
  <circle cx="300" cy="400" r="100" fill="none" stroke="#8246AF" stroke-width="2" opacity="0.7" />
  <circle cx="350" cy="313.4" r="100" fill="none" stroke="#8246AF" stroke-width="2" opacity="0.7" />
  <circle cx="450" cy="313.4" r="100" fill="none" stroke="#8246AF" stroke-width="2" opacity="0.7" />
  
  <!-- Second ring of 12 circles -->
  <!-- Top section -->
  <circle cx="400" cy="200" r="100" fill="none" stroke="#8246AF" stroke-width="2" opacity="0.6" />
  <circle cx="500" cy="200" r="100" fill="none" stroke="#8246AF" stroke-width="2" opacity="0.6" />
  <circle cx="550" cy="286.6" r="100" fill="none" stroke="#8246AF" stroke-width="2" opacity="0.6" />
  
  <!-- Right section -->
  <circle cx="600" cy="400" r="100" fill="none" stroke="#8246AF" stroke-width="2" opacity="0.6" />
  <circle cx="550" cy="513.4" r="100" fill="none" stroke="#8246AF" stroke-width="2" opacity="0.6" />
  <circle cx="500" cy="600" r="100" fill="none" stroke="#8246AF" stroke-width="2" opacity="0.6" />
  
  <!-- Bottom section -->
  <circle cx="400" cy="600" r="100" fill="none" stroke="#8246AF" stroke-width="2" opacity="0.6" />
  <circle cx="300" cy="600" r="100" fill="none" stroke="#8246AF" stroke-width="2" opacity="0.6" />
  <circle cx="250" cy="513.4" r="100" fill="none" stroke="#8246AF" stroke-width="2" opacity="0.6" />
  
  <!-- Left section -->
  <circle cx="200" cy="400" r="100" fill="none" stroke="#8246AF" stroke-width="2" opacity="0.6" />
  <circle cx="250" cy="286.6" r="100" fill="none" stroke="#8246AF" stroke-width="2" opacity="0.6" />
  <circle cx="300" cy="200" r="100" fill="none" stroke="#8246AF" stroke-width="2" opacity="0.6" />
  
  <!-- Partial third ring (to fill in gaps) -->
  <circle cx="600" cy="200" r="100" fill="none" stroke="#8246AF" stroke-width="2" opacity="0.5" />
  <circle cx="650" cy="286.6" r="100" fill="none" stroke="#8246AF" stroke-width="2" opacity="0.5" />
  <circle cx="650" cy="513.4" r="100" fill="none" stroke="#8246AF" stroke-width="2" opacity="0.5" />
  <circle cx="600" cy="600" r="100" fill="none" stroke="#8246AF" stroke-width="2" opacity="0.5" />
  <circle cx="200" cy="600" r="100" fill="none" stroke="#8246AF" stroke-width="2" opacity="0.5" />
  <circle cx="150" cy="513.4" r="100" fill="none" stroke="#8246AF" stroke-width="2" opacity="0.5" />
  <circle cx="150" cy="286.6" r="100" fill="none" stroke="#8246AF" stroke-width="2" opacity="0.5" />
  <circle cx="200" cy="200" r="100" fill="none" stroke="#8246AF" stroke-width="2" opacity="0.5" />
  
  <!-- Gold accents at key intersections -->
  <circle cx="400" cy="400" r="5" fill="#D4AF37" opacity="0.9" />
  
  <!-- First ring gold accents -->
  <circle cx="450" cy="313.4" r="3" fill="#D4AF37" opacity="0.8" />
  <circle cx="500" cy="400" r="3" fill="#D4AF37" opacity="0.8" />
  <circle cx="450" cy="486.6" r="3" fill="#D4AF37" opacity="0.8" />
  <circle cx="350" cy="486.6" r="3" fill="#D4AF37" opacity="0.8" />
  <circle cx="300" cy="400" r="3" fill="#D4AF37" opacity="0.8" />
  <circle cx="350" cy="313.4" r="3" fill="#D4AF37" opacity="0.8" />
  
  <!-- Subtle glow effect -->
  <circle cx="400" cy="400" r="120" fill="url(#goldGlow)" opacity="0.15" />
  
  <!-- Gradient definitions -->
  <defs>
    <radialGradient id="goldGlow" cx="400" cy="400" r="120" gradientUnits="userSpaceOnUse">
      <stop offset="0%" stop-color="#D4AF37" />
      <stop offset="100%" stop-color="#D4AF37" stop-opacity="0" />
    </radialGradient>
  </defs>
</svg>
