<?xml version="1.0" encoding="UTF-8"?>
<svg width="800px" height="800px" viewBox="0 0 800 800" version="1.1" xmlns="http://www.w3.org/2000/svg">
    <title>Flower of Life</title>
    <defs>
        <radialGradient id="gold-glow" cx="50%" cy="50%" r="75%" fx="50%" fy="50%">
            <stop offset="0%" style="stop-color:#FFDE7D;stop-opacity:0.3"/>
            <stop offset="100%" style="stop-color:#D4AF37;stop-opacity:0"/>
        </radialGradient>
    </defs>
    <g stroke="none" fill="none">
        <!-- Base circle with glow -->
        <circle cx="400" cy="400" r="390" fill="url(#gold-glow)" />
        
        <!-- Outer circle -->
        <circle cx="400" cy="400" r="390" stroke="#D4AF37" stroke-width="1" opacity="0.7" />
        
        <!-- Center circle -->
        <circle cx="400" cy="400" r="133" stroke="#D4AF37" stroke-width="1" opacity="0.9" />
        
        <!-- First ring of 6 circles -->
        <circle cx="400" cy="267" r="133" stroke="#D4AF37" stroke-width="1" opacity="0.8" />
        <circle cx="515" cy="333.5" r="133" stroke="#D4AF37" stroke-width="1" opacity="0.8" />
        <circle cx="515" cy="466.5" r="133" stroke="#D4AF37" stroke-width="1" opacity="0.8" />
        <circle cx="400" cy="533" r="133" stroke="#D4AF37" stroke-width="1" opacity="0.8" />
        <circle cx="285" cy="466.5" r="133" stroke="#D4AF37" stroke-width="1" opacity="0.8" />
        <circle cx="285" cy="333.5" r="133" stroke="#D4AF37" stroke-width="1" opacity="0.8" />
        
        <!-- Second ring of 12 circles -->
        <circle cx="400" cy="134" r="133" stroke="#D4AF37" stroke-width="1" opacity="0.7" />
        <circle cx="630" cy="267" r="133" stroke="#D4AF37" stroke-width="1" opacity="0.7" />
        <circle cx="630" cy="533" r="133" stroke="#D4AF37" stroke-width="1" opacity="0.7" />
        <circle cx="400" cy="666" r="133" stroke="#D4AF37" stroke-width="1" opacity="0.7" />
        <circle cx="170" cy="533" r="133" stroke="#D4AF37" stroke-width="1" opacity="0.7" />
        <circle cx="170" cy="267" r="133" stroke="#D4AF37" stroke-width="1" opacity="0.7" />
        
        <circle cx="515" cy="200.5" r="133" stroke="#D4AF37" stroke-width="1" opacity="0.7" />
        <circle cx="630" cy="400" r="133" stroke="#D4AF37" stroke-width="1" opacity="0.7" />
        <circle cx="515" cy="599.5" r="133" stroke="#D4AF37" stroke-width="1" opacity="0.7" />
        <circle cx="285" cy="599.5" r="133" stroke="#D4AF37" stroke-width="1" opacity="0.7" />
        <circle cx="170" cy="400" r="133" stroke="#D4AF37" stroke-width="1" opacity="0.7" />
        <circle cx="285" cy="200.5" r="133" stroke="#D4AF37" stroke-width="1" opacity="0.7" />
    </g>
</svg>