<?xml version="1.0" encoding="UTF-8"?>
<svg width="800px" height="800px" viewBox="0 0 800 800" version="1.1" xmlns="http://www.w3.org/2000/svg">
    <title>Metatron's Cube</title>
    <defs>
        <radialGradient id="gold-glow" cx="50%" cy="50%" r="75%" fx="50%" fy="50%">
            <stop offset="0%" style="stop-color:#FFDE7D;stop-opacity:0.5"/>
            <stop offset="100%" style="stop-color:#D4AF37;stop-opacity:0"/>
        </radialGradient>
    </defs>
    <g stroke="none" fill="none">
        <!-- Base circle with glow -->
        <circle cx="400" cy="400" r="380" fill="url(#gold-glow)" />
        
        <!-- Outer circle -->
        <circle cx="400" cy="400" r="380" stroke="#D4AF37" stroke-width="1" opacity="0.7" />
        
        <!-- Inner circle -->
        <circle cx="400" cy="400" r="320" stroke="#D4AF37" stroke-width="1" opacity="0.8" />
        
        <!-- Hexagon -->
        <polygon points="400,80 680,240 680,560 400,720 120,560 120,240" stroke="#D4AF37" stroke-width="1" opacity="0.9" />
        
        <!-- Star of David -->
        <polygon points="400,80 560,400 400,720 240,400" stroke="#D4AF37" stroke-width="1" opacity="0.7" />
        <polygon points="120,240 680,240 400,720" stroke="#D4AF37" stroke-width="1" opacity="0.7" />
        <polygon points="120,560 680,560 400,80" stroke="#D4AF37" stroke-width="1" opacity="0.7" />
        
        <!-- Inner connections -->
        <line x1="400" y1="80" x2="400" y2="720" stroke="#D4AF37" stroke-width="1" opacity="0.7" />
        <line x1="120" y1="240" x2="680" y2="560" stroke="#D4AF37" stroke-width="1" opacity="0.7" />
        <line x1="120" y1="560" x2="680" y2="240" stroke="#D4AF37" stroke-width="1" opacity="0.7" />
        
        <!-- 13 Archimedean spheres (circles) -->
        <!-- Center sphere -->
        <circle cx="400" cy="400" r="16" fill="#D4AF37" opacity="0.9" />
        
        <!-- Outer vertices of inner hexagon (6 spheres) -->
        <circle cx="400" cy="80" r="12" fill="#D4AF37" opacity="0.9" />
        <circle cx="680" cy="240" r="12" fill="#D4AF37" opacity="0.9" />
        <circle cx="680" cy="560" r="12" fill="#D4AF37" opacity="0.9" />
        <circle cx="400" cy="720" r="12" fill="#D4AF37" opacity="0.9" />
        <circle cx="120" cy="560" r="12" fill="#D4AF37" opacity="0.9" />
        <circle cx="120" cy="240" r="12" fill="#D4AF37" opacity="0.9" />
        
        <!-- Vertices of inner hexagram (6 spheres) -->
        <circle cx="240" cy="400" r="12" fill="#D4AF37" opacity="0.9" />
        <circle cx="560" cy="400" r="12" fill="#D4AF37" opacity="0.9" />
        <circle cx="320" cy="200" r="12" fill="#D4AF37" opacity="0.9" />
        <circle cx="480" cy="200" r="12" fill="#D4AF37" opacity="0.9" />
        <circle cx="320" cy="600" r="12" fill="#D4AF37" opacity="0.9" />
        <circle cx="480" cy="600" r="12" fill="#D4AF37" opacity="0.9" />
    </g>
</svg>