<svg xmlns="http://www.w3.org/2000/svg" viewBox="0 0 800 800" width="800" height="800">
  <!-- Background circle -->
  <circle cx="400" cy="400" r="380" fill="none" stroke="#8246AF" stroke-width="1" opacity="0.3" />
  
  <!-- Outer hexagon -->
  <polygon points="400,20 710,210 710,590 400,780 90,590 90,210" fill="none" stroke="#8246AF" stroke-width="2" opacity="0.5" />
  
  <!-- Inner hexagon -->
  <polygon points="400,120 635,285 635,515 400,680 165,515 165,285" fill="none" stroke="#8246AF" stroke-width="2" opacity="0.7" />
  
  <!-- Inner circle -->
  <circle cx="400" cy="400" r="280" fill="none" stroke="#8246AF" stroke-width="2" opacity="0.5" />
  
  <!-- Central circles/nodes -->
  <circle cx="400" cy="400" r="10" fill="#D4AF37" opacity="0.9" />
  <circle cx="400" cy="120" r="10" fill="#D4AF37" opacity="0.9" />
  <circle cx="635" cy="285" r="10" fill="#D4AF37" opacity="0.9" />
  <circle cx="635" cy="515" r="10" fill="#D4AF37" opacity="0.9" />
  <circle cx="400" cy="680" r="10" fill="#D4AF37" opacity="0.9" />
  <circle cx="165" cy="515" r="10" fill="#D4AF37" opacity="0.9" />
  <circle cx="165" cy="285" r="10" fill="#D4AF37" opacity="0.9" />
  
  <!-- Outer circles/nodes -->
  <circle cx="400" cy="20" r="10" fill="#D4AF37" opacity="0.9" />
  <circle cx="710" cy="210" r="10" fill="#D4AF37" opacity="0.9" />
  <circle cx="710" cy="590" r="10" fill="#D4AF37" opacity="0.9" />
  <circle cx="400" cy="780" r="10" fill="#D4AF37" opacity="0.9" />
  <circle cx="90" cy="590" r="10" fill="#D4AF37" opacity="0.9" />
  <circle cx="90" cy="210" r="10" fill="#D4AF37" opacity="0.9" />
  
  <!-- Connecting lines -->
  <!-- Inner hexagon connections -->
  <line x1="400" y1="120" x2="635" y2="285" stroke="#8246AF" stroke-width="2" opacity="0.6" />
  <line x1="635" y1="285" x2="635" y2="515" stroke="#8246AF" stroke-width="2" opacity="0.6" />
  <line x1="635" y1="515" x2="400" y2="680" stroke="#8246AF" stroke-width="2" opacity="0.6" />
  <line x1="400" y1="680" x2="165" y2="515" stroke="#8246AF" stroke-width="2" opacity="0.6" />
  <line x1="165" y1="515" x2="165" y2="285" stroke="#8246AF" stroke-width="2" opacity="0.6" />
  <line x1="165" y1="285" x2="400" y2="120" stroke="#8246AF" stroke-width="2" opacity="0.6" />
  
  <!-- Outer hexagon connections -->
  <line x1="400" y1="20" x2="710" y2="210" stroke="#8246AF" stroke-width="2" opacity="0.4" />
  <line x1="710" y1="210" x2="710" y2="590" stroke="#8246AF" stroke-width="2" opacity="0.4" />
  <line x1="710" y1="590" x2="400" y2="780" stroke="#8246AF" stroke-width="2" opacity="0.4" />
  <line x1="400" y1="780" x2="90" y2="590" stroke="#8246AF" stroke-width="2" opacity="0.4" />
  <line x1="90" y1="590" x2="90" y2="210" stroke="#8246AF" stroke-width="2" opacity="0.4" />
  <line x1="90" y1="210" x2="400" y2="20" stroke="#8246AF" stroke-width="2" opacity="0.4" />
  
  <!-- Center to inner points -->
  <line x1="400" y1="400" x2="400" y2="120" stroke="#8246AF" stroke-width="2" opacity="0.6" />
  <line x1="400" y1="400" x2="635" y2="285" stroke="#8246AF" stroke-width="2" opacity="0.6" />
  <line x1="400" y1="400" x2="635" y2="515" stroke="#8246AF" stroke-width="2" opacity="0.6" />
  <line x1="400" y1="400" x2="400" y2="680" stroke="#8246AF" stroke-width="2" opacity="0.6" />
  <line x1="400" y1="400" x2="165" y2="515" stroke="#8246AF" stroke-width="2" opacity="0.6" />
  <line x1="400" y1="400" x2="165" y2="285" stroke="#8246AF" stroke-width="2" opacity="0.6" />
  
  <!-- Inner to outer connections -->
  <line x1="400" y1="120" x2="400" y2="20" stroke="#8246AF" stroke-width="2" opacity="0.4" />
  <line x1="635" y1="285" x2="710" y2="210" stroke="#8246AF" stroke-width="2" opacity="0.4" />
  <line x1="635" y1="515" x2="710" y2="590" stroke="#8246AF" stroke-width="2" opacity="0.4" />
  <line x1="400" y1="680" x2="400" y2="780" stroke="#8246AF" stroke-width="2" opacity="0.4" />
  <line x1="165" y1="515" x2="90" y2="590" stroke="#8246AF" stroke-width="2" opacity="0.4" />
  <line x1="165" y1="285" x2="90" y2="210" stroke="#8246AF" stroke-width="2" opacity="0.4" />
  
  <!-- Additional inner connections -->
  <line x1="400" y1="120" x2="400" y2="680" stroke="#8246AF" stroke-width="1" opacity="0.3" />
  <line x1="635" y1="285" x2="165" y2="515" stroke="#8246AF" stroke-width="1" opacity="0.3" />
  <line x1="635" y1="515" x2="165" y2="285" stroke="#8246AF" stroke-width="1" opacity="0.3" />
  
  <!-- Gold glow effect at intersections -->
  <circle cx="400" cy="400" r="15" fill="#D4AF37" opacity="0.2" />
  <circle cx="400" cy="120" r="15" fill="#D4AF37" opacity="0.2" />
  <circle cx="635" cy="285" r="15" fill="#D4AF37" opacity="0.2" />
  <circle cx="635" cy="515" r="15" fill="#D4AF37" opacity="0.2" />
  <circle cx="400" cy="680" r="15" fill="#D4AF37" opacity="0.2" />
  <circle cx="165" cy="515" r="15" fill="#D4AF37" opacity="0.2" />
  <circle cx="165" cy="285" r="15" fill="#D4AF37" opacity="0.2" />
</svg>
